<?xml version="1.0" encoding="UTF-8" standalone="no" ?>
<!DOCTYPE svg PUBLIC "-//W3C//DTD SVG 1.1//EN" "http://www.w3.org/Graphics/SVG/1.1/DTD/svg11.dtd">
<svg xmlns="http://www.w3.org/2000/svg" xmlns:xlink="http://www.w3.org/1999/xlink" version="1.1" width="277" height="248" viewBox="0 0 277 248" xml:space="preserve">
<desc>Created with Fabric.js 3.6.6</desc>
<defs>
</defs>
<g transform="matrix(1.63 0 0 1.63 194.83 109.51)"  >
<g style=""   >
		<g transform="matrix(1 0 0 1 -20.23 -25.79)" id="path1948"  >
<linearGradient id="SVGID_linearGradient1478_6" gradientUnits="userSpaceOnUse" gradientTransform="matrix(0.56 0 0 0.57 -14.99 -11.7)"  x1="26.648937" y1="20.603781" x2="135.66525" y2="114.39767">
<stop offset="0%" style="stop-color:rgb(90,159,212);stop-opacity: 1"/>
<stop offset="100%" style="stop-color:rgb(48,105,152);stop-opacity: 1"/>
</linearGradient>
<path style="stroke: none; stroke-width: 1; stroke-dasharray: none; stroke-linecap: butt; stroke-dashoffset: 0; stroke-linejoin: miter; stroke-miterlimit: 4; fill: url(#SVGID_linearGradient1478_6); fill-rule: nonzero; opacity: 1;"  transform=" translate(-41.15, -41.55)" d="M 54.918785 0.00091927389 C 50.335132 0.02221727 45.957846 0.41313697 42.106285 1.0946693 C 30.760069 3.0991731 28.700036 7.2947714 28.700035 15.032169 v 10.21875 h 26.8125 v 3.40625 h -26.8125 h -10.0625 c -7.792459 0 -14.6157588 4.683717 -16.7499998 13.59375 c -2.46181998 10.212966 -2.57101508 16.586023 0 27.25 c 1.9059283 7.937852 6.4575432 13.593748 14.2499998 13.59375 h 9.21875 v -12.25 c 0 -8.849902 7.657144 -16.656248 16.75 -16.65625 h 26.78125 c 7.454951 0 13.406253 -6.138164 13.40625 -13.625 v -25.53125 c 0 -7.2663386 -6.12998 -12.7247771 -13.40625 -13.9374997 C 64.281548 0.32794397 59.502438 -0.02037903 54.918785 0.00091927389 Z m -14.5 8.21875012611 c 2.769547 0 5.03125 2.2986456 5.03125 5.1249996 c -0.000002 2.816336 -2.261703 5.09375 -5.03125 5.09375 c -2.779476 -0.000001 -5.03125 -2.277415 -5.03125 -5.09375 c -0.000001 -2.826353 2.251774 -5.1249996 5.03125 -5.1249996 z" stroke-linecap="round" />
</g>
		<g transform="matrix(1 0 0 1 8.55 3.19)" id="path1950"  >
<linearGradient id="SVGID_linearGradient1475_7" gradientUnits="userSpaceOnUse" gradientTransform="matrix(0.56 0 0 0.57 -14.99 -11.7)"  x1="150.96111" y1="192.35176" x2="112.03144" y2="137.27299">
<stop offset="0%" style="stop-color:rgb(255,212,59);stop-opacity: 1"/>
<stop offset="100%" style="stop-color:rgb(255,232,115);stop-opacity: 1"/>
</linearGradient>
<path style="stroke: none; stroke-width: 1; stroke-dasharray: none; stroke-linecap: butt; stroke-dashoffset: 0; stroke-linejoin: miter; stroke-miterlimit: 4; fill: url(#SVGID_linearGradient1475_7); fill-rule: nonzero; opacity: 1;"  transform=" translate(-69.93, -70.52)" d="m 85.637535 28.657169 v 11.90625 c 0 9.230755 -7.825895 16.999999 -16.75 17 h -26.78125 c -7.335833 0 -13.406249 6.278483 -13.40625 13.625 v 25.531247 c 0 7.266344 6.318588 11.540324 13.40625 13.625004 c 8.487331 2.49561 16.626237 2.94663 26.78125 0 c 6.750155 -1.95439 13.406253 -5.88761 13.40625 -13.625004 V 86.500919 h -26.78125 v -3.40625 h 26.78125 h 13.406254 c 7.792461 0 10.696251 -5.435408 13.406241 -13.59375 c 2.79933 -8.398886 2.68022 -16.475776 0 -27.25 c -1.92578 -7.757441 -5.60387 -13.59375 -13.406241 -13.59375 z m -15.0625 64.65625 c 2.779478 0.000003 5.03125 2.277417 5.03125 5.093747 c -0.000002 2.826354 -2.251775 5.125004 -5.03125 5.125004 c -2.76955 0 -5.03125 -2.29865 -5.03125 -5.125004 c 0.000002 -2.81633 2.261697 -5.093747 5.03125 -5.093747 z" stroke-linecap="round" />
</g>
		<g transform="matrix(1 0 0 1 -5.56 60.37)" id="path1894"  >
<radialGradient id="SVGID_radialGradient1480_8" gradientUnits="userSpaceOnUse" gradientTransform="matrix(0 -0.24 1.05 0 -139.52 14.76)"  cx="61.518883" cy="132.28575" r="29.036913" fx="61.518883" fy="132.28575">
<stop offset="0%" style="stop-color:rgb(184,184,184);stop-opacity: 0.49803922"/>
<stop offset="100%" style="stop-color:rgb(127,127,127);stop-opacity: 0"/>
</radialGradient>
<ellipse style="stroke: none; stroke-width: 15.4174; stroke-dasharray: none; stroke-linecap: butt; stroke-dashoffset: 0; stroke-linejoin: miter; stroke-miterlimit: 4; fill: url(#SVGID_radialGradient1480_8); fill-rule: nonzero; opacity: 0.44382;"  cx="0" cy="0" rx="35.930977" ry="6.9673119" />
</g>
</g>
</g>
<g transform="matrix(1 0 0 1 97 164.35)"  >
<g style=""   >
		<g transform="matrix(1 0 0 1 41 -31)"  >
<path style="stroke: none; stroke-width: 1; stroke-dasharray: none; stroke-linecap: butt; stroke-dashoffset: 0; stroke-linejoin: miter; stroke-miterlimit: 4; fill: rgb(255,255,255); fill-rule: evenodd; opacity: 1;"  transform=" translate(-141, -69)" d="M 99 52 h 84 v 34 H 99 z" stroke-linecap="round" />
</g>
		<g transform="matrix(1 0 0 1 -77 68)"  >
<path style="stroke: none; stroke-width: 1; stroke-dasharray: none; stroke-linecap: butt; stroke-dashoffset: 0; stroke-linejoin: miter; stroke-miterlimit: 4; fill: rgb(62,204,95); fill-rule: evenodd; opacity: 1;"  transform=" translate(-23, -168)" d="M 23 163 c -7.398 0 -13.843 -4.027 -17.303 -10 A 19.886 19.886 0 0 0 3 163 c 0 11.046 8.954 20 20 20 h 20 v -20 H 23 z" stroke-linecap="round" />
</g>
		<g transform="matrix(1 0 0 1 0.11 0.11)"  >
<path style="stroke: none; stroke-width: 1; stroke-dasharray: none; stroke-linecap: butt; stroke-dashoffset: 0; stroke-linejoin: miter; stroke-miterlimit: 4; fill: rgb(62,204,95); fill-rule: evenodd; opacity: 1;"  transform=" translate(-100.11, -100.11)" d="M 112.98 57.376 L 183 53 V 43 c 0 -11.046 -8.954 -20 -20 -20 H 73 l -2.5 -4.33 c -1.112 -1.925 -3.889 -1.925 -5 0 L 63 23 l -2.5 -4.33 c -1.111 -1.925 -3.889 -1.925 -5 0 L 53 23 l -2.5 -4.33 c -1.111 -1.925 -3.889 -1.925 -5 0 L 43 23 c -0.022 0 -0.042 0.003 -0.065 0.003 l -4.142 -4.141 c -1.57 -1.571 -4.252 -0.853 -4.828 1.294 l -1.369 5.104 l -5.192 -1.392 c -2.148 -0.575 -4.111 1.389 -3.535 3.536 l 1.39 5.193 l -5.102 1.367 c -2.148 0.576 -2.867 3.259 -1.296 4.83 l 4.142 4.142 c 0 0.021 -0.003 0.042 -0.003 0.064 l -4.33 2.5 c -1.925 1.111 -1.925 3.889 0 5 L 23 53 l -4.33 2.5 c -1.925 1.111 -1.925 3.889 0 5 L 23 63 l -4.33 2.5 c -1.925 1.111 -1.925 3.889 0 5 L 23 73 l -4.33 2.5 c -1.925 1.111 -1.925 3.889 0 5 L 23 83 l -4.33 2.5 c -1.925 1.111 -1.925 3.889 0 5 L 23 93 l -4.33 2.5 c -1.925 1.111 -1.925 3.889 0 5 L 23 103 l -4.33 2.5 c -1.925 1.111 -1.925 3.889 0 5 L 23 113 l -4.33 2.5 c -1.925 1.111 -1.925 3.889 0 5 L 23 123 l -4.33 2.5 c -1.925 1.111 -1.925 3.889 0 5 L 23 133 l -4.33 2.5 c -1.925 1.111 -1.925 3.889 0 5 L 23 143 l -4.33 2.5 c -1.925 1.111 -1.925 3.889 0 5 L 23 153 l -4.33 2.5 c -1.925 1.111 -1.925 3.889 0 5 L 23 163 c 0 11.046 8.954 20 20 20 h 120 c 11.046 0 20 -8.954 20 -20 V 83 l -70.02 -4.376 A 10.645 10.645 0 0 1 103 68 c 0 -5.621 4.37 -10.273 9.98 -10.624" stroke-linecap="round" />
</g>
		<g transform="matrix(1 0 0 1 58 63)"  >
<path style="stroke: none; stroke-width: 1; stroke-dasharray: none; stroke-linecap: butt; stroke-dashoffset: 0; stroke-linejoin: miter; stroke-miterlimit: 4; fill: rgb(62,204,95); fill-rule: evenodd; opacity: 1;"  transform=" translate(-158, -163)" d="M 143 183 h 30 v -40 h -30 z" stroke-linecap="round" />
</g>
		<g transform="matrix(1 0 0 1 75.5 60.5)"  >
<path style="stroke: none; stroke-width: 1; stroke-dasharray: none; stroke-linecap: butt; stroke-dashoffset: 0; stroke-linejoin: miter; stroke-miterlimit: 4; fill: rgb(68,216,96); fill-rule: evenodd; opacity: 1;"  transform=" translate(-175.5, -160.5)" d="M 193 158 c -0.219 0 -0.428 0.037 -0.639 0.064 c -0.038 -0.15 -0.074 -0.301 -0.116 -0.451 A 5 5 0 0 0 190.32 148 a 4.96 4.96 0 0 0 -3.016 1.036 a 26.531 26.531 0 0 0 -0.335 -0.336 a 4.955 4.955 0 0 0 1.011 -2.987 a 5 5 0 0 0 -9.599 -1.959 c -0.148 -0.042 -0.297 -0.077 -0.445 -0.115 c 0.027 -0.211 0.064 -0.42 0.064 -0.639 a 5 5 0 0 0 -5 -5 a 5 5 0 0 0 -5 5 c 0 0.219 0.037 0.428 0.064 0.639 c -0.148 0.038 -0.297 0.073 -0.445 0.115 a 4.998 4.998 0 0 0 -9.599 1.959 c 0 1.125 0.384 2.151 1.011 2.987 c -3.717 3.632 -6.031 8.693 -6.031 14.3 c 0 11.046 8.954 20 20 20 c 9.339 0 17.16 -6.41 19.361 -15.064 c 0.211 0.027 0.42 0.064 0.639 0.064 a 5 5 0 0 0 5 -5 a 5 5 0 0 0 -5 -5" stroke-linecap="round" />
</g>
		<g transform="matrix(1 0 0 1 68 13)"  >
<path style="stroke: none; stroke-width: 1; stroke-dasharray: none; stroke-linecap: butt; stroke-dashoffset: 0; stroke-linejoin: miter; stroke-miterlimit: 4; fill: rgb(62,204,95); fill-rule: evenodd; opacity: 1;"  transform=" translate(-168, -113)" d="M 153 123 h 30 v -20 h -30 z" stroke-linecap="round" />
</g>
		<g transform="matrix(1 0 0 1 84.25 13)"  >
<path style="stroke: none; stroke-width: 1; stroke-dasharray: none; stroke-linecap: butt; stroke-dashoffset: 0; stroke-linejoin: miter; stroke-miterlimit: 4; fill: rgb(68,216,96); fill-rule: evenodd; opacity: 1;"  transform=" translate(-184.25, -113)" d="M 193 115.5 a 2.5 2.5 0 1 0 0 -5 c -0.109 0 -0.214 0.019 -0.319 0.032 c -0.02 -0.075 -0.037 -0.15 -0.058 -0.225 a 2.501 2.501 0 0 0 -0.963 -4.807 c -0.569 0 -1.088 0.197 -1.508 0.518 a 6.653 6.653 0 0 0 -0.168 -0.168 c 0.314 -0.417 0.506 -0.931 0.506 -1.494 a 2.5 2.5 0 0 0 -4.8 -0.979 A 9.987 9.987 0 0 0 183 103 c -5.522 0 -10 4.478 -10 10 s 4.478 10 10 10 c 0.934 0 1.833 -0.138 2.69 -0.377 a 2.5 2.5 0 0 0 4.8 -0.979 c 0 -0.563 -0.192 -1.077 -0.506 -1.494 c 0.057 -0.055 0.113 -0.111 0.168 -0.168 c 0.42 0.321 0.939 0.518 1.508 0.518 a 2.5 2.5 0 0 0 0.963 -4.807 c 0.021 -0.074 0.038 -0.15 0.058 -0.225 c 0.105 0.013 0.21 0.032 0.319 0.032" stroke-linecap="round" />
</g>
		<g transform="matrix(1 0 0 1 -47 -52)"  >
<path style="stroke: none; stroke-width: 1; stroke-dasharray: none; stroke-linecap: butt; stroke-dashoffset: 0; stroke-linejoin: miter; stroke-miterlimit: 4; fill: rgb(0,0,0); fill-rule: evenodd; opacity: 1;"  transform=" translate(-53, -48)" d="M 63 55.5 a 2.5 2.5 0 0 1 -2.5 -2.5 c 0 -4.136 -3.364 -7.5 -7.5 -7.5 s -7.5 3.364 -7.5 7.5 a 2.5 2.5 0 1 1 -5 0 c 0 -6.893 5.607 -12.5 12.5 -12.5 S 65.5 46.107 65.5 53 a 2.5 2.5 0 0 1 -2.5 2.5" stroke-linecap="round" />
</g>
		<g transform="matrix(1 0 0 1 43 38)"  >
<path style="stroke: none; stroke-width: 1; stroke-dasharray: none; stroke-linecap: butt; stroke-dashoffset: 0; stroke-linejoin: miter; stroke-miterlimit: 4; fill: rgb(255,255,80); fill-rule: evenodd; opacity: 1;"  transform=" translate(-143, -138)" d="M 103 183 h 60 c 11.046 0 20 -8.954 20 -20 V 93 h -60 c -11.046 0 -20 8.954 -20 20 v 70 z" stroke-linecap="round" />
</g>
		<g transform="matrix(1 0 0 1 47.5 12.8)"  >
<path style="stroke: none; stroke-width: 1; stroke-dasharray: none; stroke-linecap: butt; stroke-dashoffset: 0; stroke-linejoin: miter; stroke-miterlimit: 4; fill: rgb(0,0,0); fill-rule: evenodd; opacity: 1;"  transform=" translate(-147.5, -112.8)" d="M 168.02 124 h -50.04 a 1 1 0 1 1 0 -2 h 50.04 a 1 1 0 1 1 0 2 m 0 20 h -50.04 a 1 1 0 1 1 0 -2 h 50.04 a 1 1 0 1 1 0 2 m 0 20 h -50.04 a 1 1 0 1 1 0 -2 h 50.04 a 1 1 0 1 1 0 2 m 0 -49.814 h -50.04 a 1 1 0 1 1 0 -2 h 50.04 a 1 1 0 1 1 0 2 m 0 19.814 h -50.04 a 1 1 0 1 1 0 -2 h 50.04 a 1 1 0 1 1 0 2 m 0 20 h -50.04 a 1 1 0 1 1 0 -2 h 50.04 a 1 1 0 1 1 0 2 M 183 61.611 c -0.012 0 -0.022 -0.006 -0.034 -0.005 c -3.09 0.105 -4.552 3.196 -5.842 5.923 c -1.346 2.85 -2.387 4.703 -4.093 4.647 c -1.889 -0.068 -2.969 -2.202 -4.113 -4.46 c -1.314 -2.594 -2.814 -5.536 -5.963 -5.426 c -3.046 0.104 -4.513 2.794 -5.807 5.167 c -1.377 2.528 -2.314 4.065 -4.121 3.994 c -1.927 -0.07 -2.951 -1.805 -4.136 -3.813 c -1.321 -2.236 -2.848 -4.75 -5.936 -4.664 c -2.994 0.103 -4.465 2.385 -5.763 4.4 c -1.373 2.13 -2.335 3.428 -4.165 3.351 c -1.973 -0.07 -2.992 -1.51 -4.171 -3.177 c -1.324 -1.873 -2.816 -3.993 -5.895 -3.89 c -2.928 0.1 -4.399 1.97 -5.696 3.618 c -1.232 1.564 -2.194 2.802 -4.229 2.724 a 1 1 0 0 0 -0.072 2 c 3.017 0.101 4.545 -1.8 5.872 -3.487 c 1.177 -1.496 2.193 -2.787 4.193 -2.855 c 1.926 -0.082 2.829 1.115 4.195 3.045 c 1.297 1.834 2.769 3.914 5.731 4.021 c 3.103 0.104 4.596 -2.215 5.918 -4.267 c 1.182 -1.834 2.202 -3.417 4.15 -3.484 c 1.793 -0.067 2.769 1.35 4.145 3.681 c 1.297 2.197 2.766 4.686 5.787 4.796 c 3.125 0.108 4.634 -2.62 5.949 -5.035 c 1.139 -2.088 2.214 -4.06 4.119 -4.126 c 1.793 -0.042 2.728 1.595 4.111 4.33 c 1.292 2.553 2.757 5.445 5.825 5.556 l 0.169 0.003 c 3.064 0 4.518 -3.075 5.805 -5.794 c 1.139 -2.41 2.217 -4.68 4.067 -4.773 v -2 z" stroke-linecap="round" />
</g>
		<g transform="matrix(1 0 0 1 3 63)"  >
<path style="stroke: none; stroke-width: 1; stroke-dasharray: none; stroke-linecap: butt; stroke-dashoffset: 0; stroke-linejoin: miter; stroke-miterlimit: 4; fill: rgb(62,204,95); fill-rule: evenodd; opacity: 1;"  transform=" translate(-103, -163)" d="M 83 183 h 40 v -40 H 83 z" stroke-linecap="round" />
</g>
		<g transform="matrix(1 0 0 1 25.5 60.5)"  >
<path style="stroke: none; stroke-width: 1; stroke-dasharray: none; stroke-linecap: butt; stroke-dashoffset: 0; stroke-linejoin: miter; stroke-miterlimit: 4; fill: rgb(68,216,96); fill-rule: evenodd; opacity: 1;"  transform=" translate(-125.5, -160.5)" d="M 143 158 c -0.219 0 -0.428 0.037 -0.639 0.064 c -0.038 -0.15 -0.074 -0.301 -0.116 -0.451 A 5 5 0 0 0 140.32 148 a 4.96 4.96 0 0 0 -3.016 1.036 a 26.531 26.531 0 0 0 -0.335 -0.336 a 4.955 4.955 0 0 0 1.011 -2.987 a 5 5 0 0 0 -9.599 -1.959 c -0.148 -0.042 -0.297 -0.077 -0.445 -0.115 c 0.027 -0.211 0.064 -0.42 0.064 -0.639 a 5 5 0 0 0 -5 -5 a 5 5 0 0 0 -5 5 c 0 0.219 0.037 0.428 0.064 0.639 c -0.148 0.038 -0.297 0.073 -0.445 0.115 a 4.998 4.998 0 0 0 -9.599 1.959 c 0 1.125 0.384 2.151 1.011 2.987 c -3.717 3.632 -6.031 8.693 -6.031 14.3 c 0 11.046 8.954 20 20 20 c 9.339 0 17.16 -6.41 19.361 -15.064 c 0.211 0.027 0.42 0.064 0.639 0.064 a 5 5 0 0 0 5 -5 a 5 5 0 0 0 -5 -5" stroke-linecap="round" />
</g>
		<g transform="matrix(1 0 0 1 3 13)"  >
<path style="stroke: none; stroke-width: 1; stroke-dasharray: none; stroke-linecap: butt; stroke-dashoffset: 0; stroke-linejoin: miter; stroke-miterlimit: 4; fill: rgb(62,204,95); fill-rule: evenodd; opacity: 1;"  transform=" translate(-103, -113)" d="M 83 123 h 40 v -20 H 83 z" stroke-linecap="round" />
</g>
		<g transform="matrix(1 0 0 1 24.25 13)"  >
<path style="stroke: none; stroke-width: 1; stroke-dasharray: none; stroke-linecap: butt; stroke-dashoffset: 0; stroke-linejoin: miter; stroke-miterlimit: 4; fill: rgb(68,216,96); fill-rule: evenodd; opacity: 1;"  transform=" translate(-124.25, -113)" d="M 133 115.5 a 2.5 2.5 0 1 0 0 -5 c -0.109 0 -0.214 0.019 -0.319 0.032 c -0.02 -0.075 -0.037 -0.15 -0.058 -0.225 a 2.501 2.501 0 0 0 -0.963 -4.807 c -0.569 0 -1.088 0.197 -1.508 0.518 a 6.653 6.653 0 0 0 -0.168 -0.168 c 0.314 -0.417 0.506 -0.931 0.506 -1.494 a 2.5 2.5 0 0 0 -4.8 -0.979 A 9.987 9.987 0 0 0 123 103 c -5.522 0 -10 4.478 -10 10 s 4.478 10 10 10 c 0.934 0 1.833 -0.138 2.69 -0.377 a 2.5 2.5 0 0 0 4.8 -0.979 c 0 -0.563 -0.192 -1.077 -0.506 -1.494 c 0.057 -0.055 0.113 -0.111 0.168 -0.168 c 0.42 0.321 0.939 0.518 1.508 0.518 a 2.5 2.5 0 0 0 0.963 -4.807 c 0.021 -0.074 0.038 -0.15 0.058 -0.225 c 0.105 0.013 0.21 0.032 0.319 0.032" stroke-linecap="round" />
</g>
		<g transform="matrix(1 0 0 1 53 -61.38)"  >
<path style="stroke: none; stroke-width: 1; stroke-dasharray: none; stroke-linecap: butt; stroke-dashoffset: 0; stroke-linejoin: miter; stroke-miterlimit: 4; fill: rgb(0,0,0); fill-rule: evenodd; opacity: 1;"  transform=" translate(-153, -38.62)" d="M 143 41.75 c -0.16 0 -0.33 -0.02 -0.49 -0.05 a 2.52 2.52 0 0 1 -0.47 -0.14 c -0.15 -0.06 -0.29 -0.14 -0.431 -0.23 c -0.13 -0.09 -0.259 -0.2 -0.38 -0.31 c -0.109 -0.12 -0.219 -0.24 -0.309 -0.38 s -0.17 -0.28 -0.231 -0.43 a 2.619 2.619 0 0 1 -0.189 -0.96 c 0 -0.16 0.02 -0.33 0.05 -0.49 c 0.03 -0.16 0.08 -0.31 0.139 -0.47 c 0.061 -0.15 0.141 -0.29 0.231 -0.43 c 0.09 -0.13 0.2 -0.26 0.309 -0.38 c 0.121 -0.11 0.25 -0.22 0.38 -0.31 c 0.141 -0.09 0.281 -0.17 0.431 -0.23 c 0.149 -0.06 0.31 -0.11 0.47 -0.14 c 0.32 -0.07 0.65 -0.07 0.98 0 c 0.159 0.03 0.32 0.08 0.47 0.14 c 0.149 0.06 0.29 0.14 0.43 0.23 c 0.13 0.09 0.259 0.2 0.38 0.31 c 0.11 0.12 0.22 0.25 0.31 0.38 c 0.09 0.14 0.17 0.28 0.23 0.43 c 0.06 0.16 0.11 0.31 0.14 0.47 c 0.029 0.16 0.05 0.33 0.05 0.49 c 0 0.66 -0.271 1.31 -0.73 1.77 c -0.121 0.11 -0.25 0.22 -0.38 0.31 c -0.14 0.09 -0.281 0.17 -0.43 0.23 a 2.565 2.565 0 0 1 -0.96 0.19 m 20 -1.25 c -0.66 0 -1.3 -0.27 -1.771 -0.73 a 3.802 3.802 0 0 1 -0.309 -0.38 c -0.09 -0.14 -0.17 -0.28 -0.231 -0.43 a 2.619 2.619 0 0 1 -0.189 -0.96 c 0 -0.66 0.27 -1.3 0.729 -1.77 c 0.121 -0.11 0.25 -0.22 0.38 -0.31 c 0.141 -0.09 0.281 -0.17 0.431 -0.23 c 0.149 -0.06 0.31 -0.11 0.47 -0.14 c 0.32 -0.07 0.66 -0.07 0.98 0 c 0.159 0.03 0.32 0.08 0.47 0.14 c 0.149 0.06 0.29 0.14 0.43 0.23 c 0.13 0.09 0.259 0.2 0.38 0.31 c 0.459 0.47 0.73 1.11 0.73 1.77 c 0 0.16 -0.021 0.33 -0.05 0.49 c -0.03 0.16 -0.08 0.32 -0.14 0.47 c -0.07 0.15 -0.14 0.29 -0.23 0.43 c -0.09 0.13 -0.2 0.26 -0.31 0.38 c -0.121 0.11 -0.25 0.22 -0.38 0.31 c -0.14 0.09 -0.281 0.17 -0.43 0.23 a 2.565 2.565 0 0 1 -0.96 0.19" stroke-linecap="round" />
</g>
</g>
</g>
</svg>